<?xml version="1.0" encoding="UTF-8"?>
<svg version="1.1" xmlns="http://www.w3.org/2000/svg" width="30" height="30">
<path d="M0 0 C3.70129644 0.38961015 5.61879622 1.11749016 8 4 C10.46800047 2.84826645 12.04783565 1.95216435 14 0 C15.32 0 16.64 0 18 0 C17.50168276 3.68754757 16.89932357 5.60490662 14 8 C15.15173355 10.46800047 16.04783565 12.04783565 18 14 C18 15.32 18 16.64 18 18 C14.31245243 17.50168276 12.39509338 16.89932357 10 14 C7.53199953 15.15173355 5.95216435 16.04783565 4 18 C2.68 18 1.36 18 0 18 C0.49831724 14.31245243 1.10067643 12.39509338 4 10 C2.50163895 6.88801935 0.80066242 3.9465385 -1 1 C-0.67 0.67 -0.34 0.34 0 0 Z " fill="#000000" transform="translate(6,6)"/>
</svg>
