<?xml version="1.0" encoding="UTF-8"?>
<svg version="1.1" xmlns="http://www.w3.org/2000/svg" width="512" height="512">
<path d="M0 0 C0.69145111 -0.00992981 1.38290222 -0.01985962 2.0953064 -0.03009033 C4.38291411 -0.05929882 6.67024425 -0.07293277 8.95800781 -0.08398438 C10.55120855 -0.09549244 12.14440923 -0.10700784 13.73760986 -0.11853027 C17.07996916 -0.13954188 20.42223239 -0.15123183 23.76464844 -0.15820312 C28.03657494 -0.16915626 32.30722109 -0.21717464 36.5787468 -0.27414703 C39.8714359 -0.31150159 43.16382014 -0.32181633 46.45670319 -0.32487488 C48.03074372 -0.33090892 49.6047801 -0.34690235 51.17861176 -0.37324524 C65.02537999 -0.58842043 65.02537999 -0.58842043 69.59301758 3.21362305 C71.83861455 5.63147314 73.34014887 7.96597597 74.34863281 11.13476562 C74.64640625 12.06933594 74.94417969 13.00390625 75.25097656 13.96679688 C80.16113281 32.06904674 80.16113281 32.06904674 80.16113281 37.32226562 C81.70414062 37.52142578 81.70414062 37.52142578 83.27832031 37.72460938 C102.36946426 40.66318586 120.81959344 49.18754175 137.61010742 58.37304688 C138.5241333 58.870625 139.43815918 59.36820313 140.37988281 59.88085938 C141.18361328 60.32743896 141.98734375 60.77401855 142.81542969 61.23413086 C145.32818817 62.39975997 147.40323881 63.04950994 150.16113281 63.32226562 C152.77492121 62.02561584 155.05316987 60.72340323 157.47363281 59.13476562 C158.81514707 58.29733061 160.15758581 57.4613746 161.50097656 56.62695312 C162.1376123 56.22573242 162.77424805 55.82451172 163.43017578 55.41113281 C169.38925479 51.66254432 174.97674912 48.71258493 182.16113281 50.32226562 C189.02898138 53.57904632 193.83065012 58.55728472 199.14550781 63.90820312 C200.09195032 64.85262072 201.03883744 65.79659294 201.98614502 66.74014282 C203.9610046 68.71060085 205.93039073 70.68632737 207.89599609 72.66601562 C210.40637428 75.19350795 212.93001582 77.7072581 215.45791245 80.21721458 C217.41254343 82.16096898 219.35992877 84.11185675 221.30524445 86.06492996 C222.68104427 87.44368173 224.0628484 88.81643369 225.44476318 90.1890564 C226.28283508 91.03658478 227.12090698 91.88411316 227.984375 92.75732422 C229.08854767 93.86507706 229.08854767 93.86507706 230.21502686 94.99520874 C234.02400162 99.54979166 235.85456018 103.90032416 235.63769531 109.77539062 C234.04328241 118.29635138 228.31081903 125.91410859 223.38378906 132.84960938 C221.85049884 135.95048065 222.25646396 137.03634549 223.16113281 140.32226562 C224.21892127 142.67964124 224.21892127 142.67964124 225.56738281 145.03320312 C226.30601562 146.38865234 226.30601562 146.38865234 227.05957031 147.77148438 C227.58808594 148.73699219 228.11660156 149.7025 228.66113281 150.69726562 C248.16113281 187.22477759 248.16113281 187.22477759 248.16113281 205.32226562 C248.74636719 205.40863281 249.33160156 205.495 249.93457031 205.58398438 C256.19862661 206.60918278 262.33767358 208.02600046 268.47363281 209.63476562 C269.23788574 209.82321045 270.00213867 210.01165527 270.78955078 210.20581055 C277.27623112 211.96105494 281.35284262 214.60983033 285.16113281 220.32226562 C285.4420166 223.36932373 285.4420166 223.36932373 285.48339844 227.16113281 C285.49332825 227.85258392 285.50325806 228.54403503 285.51348877 229.25643921 C285.54269726 231.54404692 285.55633121 233.83137706 285.56738281 236.11914062 C285.57889088 237.71234136 285.59040628 239.30554204 285.60192871 240.89874268 C285.62294032 244.24110197 285.63463027 247.58336521 285.64160156 250.92578125 C285.6525547 255.19770775 285.70057308 259.46835391 285.75754547 263.73987961 C285.79490003 267.03256871 285.80521477 270.32495295 285.80827332 273.617836 C285.81430736 275.19187654 285.83030078 276.76591291 285.85664368 278.33974457 C286.07176677 292.18316038 286.07176677 292.18316038 282.35327148 296.73217773 C279.09334844 299.8260992 275.44398916 301.18010772 271.16113281 302.32226562 C270.34821777 302.54962402 269.53530273 302.77698242 268.69775391 303.01123047 C266.08936477 303.71464396 263.47298928 304.36868667 260.84863281 305.00976562 C259.95595703 305.23470703 259.06328125 305.45964844 258.14355469 305.69140625 C251.55567594 307.32226562 251.55567594 307.32226562 248.16113281 307.32226562 C247.96583984 308.85560547 247.96583984 308.85560547 247.76660156 310.41992188 C245.33818657 326.07144821 238.82547571 341.0941324 232.09863281 355.32226562 C231.68726074 356.19439697 231.27588867 357.06652832 230.85205078 357.96508789 C228.55129972 362.74022296 226.09979383 367.14013823 222.98364258 371.43554688 C221.82279636 374.09836064 222.31482319 375.57786065 223.16113281 378.32226562 C224.24698319 380.62287663 224.24698319 380.62287663 225.62988281 382.86132812 C226.1184375 383.68890625 226.60699219 384.51648438 227.11035156 385.36914062 C227.62210937 386.21992188 228.13386719 387.07070313 228.66113281 387.94726562 C229.67395372 389.64635561 230.68447451 391.34681937 231.69238281 393.04882812 C232.14162109 393.79729004 232.59085937 394.54575195 233.05371094 395.31689453 C234.76047017 398.40757361 235.3579925 401.09088355 235.47363281 404.57226562 C235.51101563 405.29929687 235.54839844 406.02632813 235.58691406 406.77539062 C234.20811133 415.02290788 227.215681 420.70416709 221.57519531 426.30664062 C220.63077772 427.25308313 219.6868055 428.19997026 218.74325562 429.14727783 C216.77279759 431.12213741 214.79707107 433.09152354 212.81738281 435.05712891 C210.28989049 437.5675071 207.77614033 440.09114864 205.26618385 442.61904526 C203.32242946 444.57367624 201.37154169 446.52106159 199.41846848 448.46637726 C198.03971671 449.84217708 196.66696475 451.22398121 195.29434204 452.605896 C194.44681366 453.4439679 193.59928528 454.28203979 192.72607422 455.14550781 C191.61832138 456.24968048 191.61832138 456.24968048 190.4881897 457.37615967 C185.93360678 461.18513443 181.58307427 463.01569299 175.70800781 462.79882812 C167.18704706 461.20441522 159.56928984 455.47195184 152.63378906 450.54492188 C149.53291778 449.01163165 148.44705295 449.41759678 145.16113281 450.32226562 C142.8037572 451.38005408 142.8037572 451.38005408 140.45019531 452.72851562 C139.09474609 453.46714844 139.09474609 453.46714844 137.71191406 454.22070312 C136.74640625 454.74921875 135.78089844 455.27773438 134.78613281 455.82226562 C98.25862085 475.32226562 98.25862085 475.32226562 80.16113281 475.32226562 C80.06316406 475.93070312 79.96519531 476.53914063 79.86425781 477.16601562 C78.86325272 483.03397649 77.65626133 488.84322432 76.28613281 494.63476562 C76.13692383 495.30378906 75.98771484 495.9728125 75.83398438 496.66210938 C74.16044483 503.53423087 71.06436161 508.40576644 65.16113281 512.32226562 C61.87356567 512.84365845 61.87356567 512.84365845 58.09521484 512.87158203 C57.0576001 512.88691483 57.0576001 512.88691483 55.99902344 512.90255737 C53.72197444 512.93026046 51.44614237 512.92844328 49.16894531 512.92382812 C47.57859858 512.9316078 45.98825597 512.94027833 44.3979187 512.94979858 C41.06738812 512.96470421 37.7372816 512.96415534 34.40673828 512.95361328 C30.15044654 512.94203292 25.8958981 512.97586649 21.63989449 513.02230263 C18.35572255 513.05185232 15.07196673 513.0535108 11.78768539 513.04728317 C10.21926295 513.04830614 8.65081616 513.05871695 7.08252335 513.07890701 C-6.68780749 513.23441972 -6.68780749 513.23441972 -11.24438477 509.51000977 C-14.34401677 506.25244091 -15.69621967 502.60695792 -16.83886719 498.32226562 C-17.06622559 497.50935059 -17.29358398 496.69643555 -17.52783203 495.85888672 C-18.23124552 493.25049758 -18.88528823 490.63412209 -19.52636719 488.00976562 C-19.75130859 487.11708984 -19.97625 486.22441406 -20.20800781 485.3046875 C-21.83886719 478.71680875 -21.83886719 478.71680875 -21.83886719 475.32226562 C-22.8971875 475.23847656 -23.95550781 475.1546875 -25.04589844 475.06835938 C-31.09929995 474.30188743 -36.76128653 472.32005735 -42.52636719 470.38476562 C-43.71520508 469.98580078 -44.90404297 469.58683594 -46.12890625 469.17578125 C-60.9968804 464.05109223 -75.05937052 457.49903528 -88.3125 449.01367188 C-91.78282143 446.78988543 -91.78282143 446.78988543 -95.83886719 446.32226562 C-97.72248461 447.94524767 -99.42283403 449.5697955 -101.14550781 451.35180664 C-101.67447662 451.88676254 -102.20344543 452.42171844 -102.7484436 452.97288513 C-103.89920297 454.1384312 -105.04651814 455.30738533 -106.19081116 456.47928047 C-108.00973243 458.34113206 -109.83828257 460.19300823 -111.6697998 462.04246521 C-116.87644645 467.30412644 -122.06349653 472.58498546 -127.24804688 477.8684082 C-130.42002394 481.09950377 -133.60206746 484.32042467 -136.7898407 487.53593254 C-138.57850461 489.34654859 -140.35499532 491.16853981 -142.13146973 492.99110413 C-153.79621009 504.83285313 -164.81641543 512.51636076 -181.83886719 512.69726562 C-194.63869853 512.56123635 -204.53028554 509.0217988 -214.13574219 500.21679688 C-224.55415341 489.15213082 -227.54295984 477.16146997 -227.20996094 462.38867188 C-226.2855574 444.6802582 -213.06116957 433.24005972 -201.24511719 421.53320312 C-200.04541783 420.3372433 -198.8461662 419.14083419 -197.64733887 417.94400024 C-194.52172446 414.82594834 -191.39014767 411.71395486 -188.25720215 408.60327148 C-185.04896209 405.41565073 -181.8465195 402.22221667 -178.64355469 399.02929688 C-172.3809201 392.78798159 -166.11196165 386.55306762 -159.83886719 380.32226562 C-160.37068604 379.39212646 -160.90250488 378.4619873 -161.45043945 377.50366211 C-162.16455631 376.25439769 -162.87866733 375.00512994 -163.59277344 373.75585938 C-163.94134399 373.14625366 -164.28991455 372.53664795 -164.64904785 371.90856934 C-189.83886719 327.83731226 -189.83886719 327.83731226 -189.83886719 307.32226562 C-190.71671875 307.19271484 -190.71671875 307.19271484 -191.61230469 307.06054688 C-197.87636099 306.03534847 -204.01540796 304.61853079 -210.15136719 303.00976562 C-210.91562012 302.8213208 -211.67987305 302.63287598 -212.46728516 302.4387207 C-218.19988007 300.88752586 -222.59955764 298.72531554 -225.98208618 293.58493042 C-227.14951427 290.50188072 -227.10874352 287.83305778 -227.12939453 284.53759766 C-227.13611176 283.86390137 -227.14282898 283.19020508 -227.14974976 282.49609375 C-227.16871192 280.27401304 -227.17265302 278.05223466 -227.17480469 275.83007812 C-227.18123399 274.2807503 -227.18796245 272.73142368 -227.19497681 271.18209839 C-227.20694518 267.93566067 -227.2106581 264.68932932 -227.20947266 261.44287109 C-227.20926952 257.29110009 -227.23656775 253.14001399 -227.27101707 248.98840523 C-227.29329928 245.78841036 -227.2973098 242.58857996 -227.2962532 239.38851547 C-227.29860733 237.85835282 -227.30742031 236.3281855 -227.32291794 234.79809952 C-227.34260565 232.6534918 -227.33673081 230.51035616 -227.32470703 228.36572266 C-227.32755707 227.14756866 -227.3304071 225.92941467 -227.33334351 224.67434692 C-226.58101986 219.57430485 -224.17581882 216.48921242 -220.35058594 213.15039062 C-215.32467638 210.53401057 -210.14727245 209.35693758 -204.65136719 208.07226562 C-203.01264648 207.67007813 -203.01264648 207.67007813 -201.34082031 207.25976562 C-193.3189772 205.32226562 -193.3189772 205.32226562 -189.83886719 205.32226562 C-189.72542969 204.35546875 -189.61199219 203.38867188 -189.49511719 202.39257812 C-186.63596553 182.58699634 -177.36817088 163.03039347 -167.66967773 145.73754883 C-165.73563401 142.25434787 -164.20151876 139.30690918 -163.83886719 135.32226562 C-164.76458516 132.88732647 -164.76458516 132.88732647 -166.33105469 130.56445312 C-166.87117188 129.69175781 -167.41128906 128.8190625 -167.96777344 127.91992188 C-168.54398438 127.02144531 -169.12019531 126.12296875 -169.71386719 125.19726562 C-170.83853941 123.40442079 -171.96103545 121.61020844 -173.08105469 119.81445312 C-173.58491699 119.02409668 -174.0887793 118.23374023 -174.60791016 117.41943359 C-176.43360882 114.30901085 -177.03340912 111.62342421 -177.15136719 108.07226562 C-177.20744141 106.98171875 -177.20744141 106.98171875 -177.26464844 105.86914062 C-175.88584571 97.62162337 -168.89341537 91.94036416 -163.25292969 86.33789062 C-162.30851209 85.39144812 -161.36453987 84.44456099 -160.42098999 83.49725342 C-158.45053196 81.52239384 -156.47480545 79.55300771 -154.49511719 77.58740234 C-151.96762487 75.07702415 -149.45387471 72.55338261 -146.94391823 70.02548599 C-145.00016383 68.07085501 -143.04927606 66.12346966 -141.09620285 64.17815399 C-139.71745109 62.80235417 -138.34469913 61.42055004 -136.97207642 60.03863525 C-135.70078384 58.7815274 -135.70078384 58.7815274 -134.40380859 57.49902344 C-133.6653067 56.76290833 -132.92680481 56.02679321 -132.16592407 55.26837158 C-127.61134115 51.45939682 -123.26080865 49.62883826 -117.38574219 49.84570312 C-108.86478143 51.44011603 -101.24702422 57.17257941 -94.31152344 62.09960938 C-91.21120584 63.63262582 -90.12382848 63.22742388 -86.83886719 62.32226562 C-84.49760598 61.264676 -84.49760598 61.264676 -82.16308594 59.91601562 C-81.26452881 59.42359375 -80.36597168 58.93117187 -79.44018555 58.42382812 C-78.47862549 57.8953125 -77.51706543 57.36679687 -76.52636719 56.82226562 C-61.05126021 48.53384443 -39.83423673 37.32226562 -21.83886719 37.32226562 C-21.70931641 36.44441406 -21.70931641 36.44441406 -21.57714844 35.54882812 C-20.55195003 29.28477182 -19.13513235 23.14572485 -17.52636719 17.00976562 C-17.33792236 16.2455127 -17.14947754 15.48125977 -16.95532227 14.69384766 C-14.4885021 5.57746825 -9.89118159 0.10794722 0 0 Z M-2.83886719 125.32226562 C-3.79792969 125.56372314 -3.79792969 125.56372314 -4.77636719 125.81005859 C-25.50770807 131.16256997 -43.48572184 141.7041411 -59.83886719 155.32226562 C-60.7940625 156.09183594 -60.7940625 156.09183594 -61.76855469 156.87695312 C-81.9818376 173.49676352 -95.54147172 199.30483477 -101.83886719 224.32226562 C-102.01385742 224.97984863 -102.18884766 225.63743164 -102.36914062 226.31494141 C-109.22252485 252.96171354 -105.95517694 284.22644212 -94.83886719 309.32226562 C-93.87687972 310.68327918 -92.88547629 312.02519694 -91.83886719 313.32226562 C-88.80088168 310.50752111 -85.79389545 307.66343882 -82.81176758 304.78955078 C-81.79435112 303.81727014 -80.76898662 302.85323405 -79.7355957 301.89794922 C-73.76455949 296.80070473 -73.76455949 296.80070473 -70.35473633 290.07373047 C-70.55398785 287.70923194 -70.55398785 287.70923194 -71.83886719 284.32226562 C-72.21205078 282.76378906 -72.21205078 282.76378906 -72.59277344 281.17382812 C-72.85960937 280.1090625 -73.12644531 279.04429687 -73.40136719 277.94726562 C-78.98223712 250.4827875 -73.62941779 221.99856296 -58.83886719 198.32226562 C-43.6628171 175.68859027 -21.64854395 160.49928297 4.76660156 153.97851562 C21.38236152 150.76626284 45.41795668 148.69940367 60.93457031 156.76367188 C64.52907961 159.27982838 66.75451171 162.06736678 67.54785156 166.46679688 C67.86597563 172.90606676 65.6779206 177.46392495 61.4425354 182.27409363 C59.35374928 184.40961111 57.22334135 186.49271562 55.07128906 188.56445312 C53.46637055 190.14117344 51.86155606 191.71799965 50.25683594 193.29492188 C47.74083808 195.74884782 45.22154066 198.19929606 42.69946289 200.64697266 C40.25223811 203.02744842 37.81765008 205.42032663 35.38378906 207.81445312 C34.63468765 208.53349823 33.88558624 209.25254333 33.11378479 209.99337769 C25.76612605 217.23733024 21.11111381 224.47565536 20.84863281 234.94726562 C20.91153109 242.3063638 23.03632588 247.8596173 26.84863281 254.07226562 C33.54194536 260.58467783 40.54941089 264.31564129 49.91113281 264.69726562 C68.78709983 264.25449603 81.20718882 246.38445665 93.44042969 233.87158203 C95.40826339 231.86136276 97.38547997 229.86076738 99.36425781 227.86132812 C99.95813293 227.24883209 100.55200806 226.63633606 101.16387939 226.00527954 C105.08537302 222.05993289 108.86098827 218.93279237 114.50488281 217.88867188 C119.86158362 217.87896771 122.99205127 218.64950331 127.16113281 222.32226562 C137.11301661 236.78866313 134.96423572 262.18883269 132.03613281 278.57226562 C127.697429 296.08852103 120.10294872 312.7114164 108.16113281 326.32226562 C107.24074219 327.45728516 107.24074219 327.45728516 106.30175781 328.61523438 C90.66281605 347.38842686 67.00603603 357.48714859 43.16113281 360.32226562 C38.61516234 360.62533032 34.09144324 360.70199727 29.53613281 360.69726562 C27.70876587 360.70028687 27.70876587 360.70028687 25.84448242 360.70336914 C17.03674175 360.6050204 9.05720672 359.48747326 0.60253906 357.09960938 C-2.9568684 356.29561155 -4.42471608 356.23014939 -7.83886719 357.32226562 C-10.33850833 359.2723393 -10.33850833 359.2723393 -12.70214844 361.79492188 C-13.58837891 362.69404297 -14.47460938 363.59316406 -15.38769531 364.51953125 C-16.29970703 365.46505859 -17.21171875 366.41058594 -18.15136719 367.38476562 C-19.09118994 368.34466384 -20.03193608 369.30365891 -20.97363281 370.26171875 C-23.27128743 372.60650474 -25.55909479 374.9601109 -27.83886719 377.32226562 C-8.98390575 392.53639776 24.39187431 391.95044579 46.91796875 390.09521484 C51.77634657 389.53280157 56.42843168 388.54778613 61.16113281 387.32226562 C62.42699219 387.00515625 63.69285156 386.68804687 64.99707031 386.36132812 C86.3852532 380.55959937 106.7997109 369.3330771 122.16113281 353.32226562 C127.16113281 348.32226562 127.16113281 348.32226562 128.7277832 346.84350586 C133.18612134 342.56251318 136.7221107 338.05081624 140.09863281 332.88476562 C140.61369385 332.10125732 141.12875488 331.31774902 141.65942383 330.51049805 C160.78208693 300.89379976 168.40499987 265.47548708 161.65185547 230.69970703 C155.37181949 202.40426404 141.98980355 180.13394412 122.16113281 159.32226562 C121.58105469 158.66613281 121.00097656 158.01 120.40332031 157.33398438 C105.43626625 140.91724183 82.06930495 131.13539306 61.16113281 125.32226562 C60.46648926 125.12874512 59.7718457 124.93522461 59.05615234 124.73583984 C39.6812378 119.66572349 16.47237877 120.31188984 -2.83886719 125.32226562 Z " fill="#A4D9F5" transform="translate(226.8388671875,-0.322265625)"/>
<path d="M0 0 C0.69145111 -0.00992981 1.38290222 -0.01985962 2.0953064 -0.03009033 C4.38291411 -0.05929882 6.67024425 -0.07293277 8.95800781 -0.08398438 C10.55120855 -0.09549244 12.14440923 -0.10700784 13.73760986 -0.11853027 C17.07996916 -0.13954188 20.42223239 -0.15123183 23.76464844 -0.15820312 C28.03657494 -0.16915626 32.30722109 -0.21717464 36.5787468 -0.27414703 C39.8714359 -0.31150159 43.16382014 -0.32181633 46.45670319 -0.32487488 C48.03074372 -0.33090892 49.6047801 -0.34690235 51.17861176 -0.37324524 C65.02537999 -0.58842043 65.02537999 -0.58842043 69.59301758 3.21362305 C71.83861455 5.63147314 73.34014887 7.96597597 74.34863281 11.13476562 C74.64640625 12.06933594 74.94417969 13.00390625 75.25097656 13.96679688 C80.16113281 32.06904674 80.16113281 32.06904674 80.16113281 37.32226562 C81.70414062 37.52142578 81.70414062 37.52142578 83.27832031 37.72460938 C102.36946426 40.66318586 120.81959344 49.18754175 137.61010742 58.37304688 C138.5241333 58.870625 139.43815918 59.36820313 140.37988281 59.88085938 C141.18361328 60.32743896 141.98734375 60.77401855 142.81542969 61.23413086 C145.32818817 62.39975997 147.40323881 63.04950994 150.16113281 63.32226562 C152.77492121 62.02561584 155.05316987 60.72340323 157.47363281 59.13476562 C158.81514707 58.29733061 160.15758581 57.4613746 161.50097656 56.62695312 C162.1376123 56.22573242 162.77424805 55.82451172 163.43017578 55.41113281 C169.38925479 51.66254432 174.97674912 48.71258493 182.16113281 50.32226562 C189.51050403 53.55153479 194.57554589 59.40000751 200.09863281 65.07226562 C201.07774474 66.06645078 202.05755698 67.05994676 203.03808594 68.05273438 C205.41939651 70.46923673 207.79339336 72.89247682 210.16113281 75.32226562 C205.75049554 80.6010605 201.1028084 85.51855453 196.22802734 90.36889648 C195.45661911 91.14045074 194.68521088 91.912005 193.89042664 92.7069397 C191.36063137 95.2360428 188.82732119 97.76159337 186.29394531 100.28710938 C184.5311026 102.04808543 182.76848172 103.80928358 181.006073 105.57069397 C176.382175 110.1907863 171.755281 114.80786674 167.12774658 119.42431641 C162.39980292 124.14145831 157.67525722 128.86200314 152.95019531 133.58203125 C143.68995767 142.83156598 134.42664756 152.07801728 125.16113281 161.32226562 C121.78837282 159.72452671 119.54032879 157.92563307 116.84863281 155.32226562 C93.04296922 133.66813431 61.30174118 122.86851181 29.41113281 123.00976562 C27.4337915 123.01713745 27.4337915 123.01713745 25.41650391 123.0246582 C15.6472977 123.14191754 6.62863186 123.8658872 -2.83886719 126.32226562 C-3.47824219 126.4832373 -4.11761719 126.64420898 -4.77636719 126.81005859 C-25.54128077 132.17123792 -43.42601667 142.73820084 -59.83886719 156.32226562 C-60.68384766 156.98162109 -60.68384766 156.98162109 -61.54589844 157.65429688 C-81.55452363 173.43946557 -94.74739092 200.12288239 -100.83886719 224.32226562 C-101.01385742 224.97984863 -101.18884766 225.63743164 -101.36914062 226.31494141 C-108.32839829 253.37336205 -103.8903262 281.269014 -94.54736328 306.9831543 C-94.31355957 307.75506104 -94.07975586 308.52696777 -93.83886719 309.32226562 C-93.53853073 310.22339584 -93.23819427 311.12452606 -92.92875671 312.05296326 C-92.83886719 315.32226562 -92.83886719 315.32226562 -95.18626404 318.51144409 C-96.3368729 319.68234807 -97.50720628 320.83405811 -98.69213867 321.97021484 C-99.32597473 322.60507309 -99.95981079 323.23993134 -100.612854 323.89402771 C-102.71239081 325.98868699 -104.83563063 328.05746757 -106.95996094 330.12695312 C-108.42022554 331.57416238 -109.8789524 333.02292478 -111.3361969 334.47317505 C-115.17613526 338.2863841 -119.03662856 342.0781085 -122.9017334 345.86578369 C-126.84193996 349.7343888 -130.76240882 353.62288181 -134.68457031 357.50976562 C-142.38344635 365.13356373 -150.10417661 372.73481754 -157.83886719 380.32226562 C-162.51658413 375.72718232 -165.43058562 371.30938814 -168.52636719 365.57226562 C-169.04529541 364.61360596 -169.56422363 363.65494629 -170.09887695 362.66723633 C-189.83886719 325.28751127 -189.83886719 325.28751127 -189.83886719 307.32226562 C-190.71671875 307.19271484 -190.71671875 307.19271484 -191.61230469 307.06054688 C-197.87636099 306.03534847 -204.01540796 304.61853079 -210.15136719 303.00976562 C-210.91562012 302.8213208 -211.67987305 302.63287598 -212.46728516 302.4387207 C-218.19988007 300.88752586 -222.59955764 298.72531554 -225.98208618 293.58493042 C-227.14951427 290.50188072 -227.10874352 287.83305778 -227.12939453 284.53759766 C-227.13611176 283.86390137 -227.14282898 283.19020508 -227.14974976 282.49609375 C-227.16871192 280.27401304 -227.17265302 278.05223466 -227.17480469 275.83007812 C-227.18123399 274.2807503 -227.18796245 272.73142368 -227.19497681 271.18209839 C-227.20694518 267.93566067 -227.2106581 264.68932932 -227.20947266 261.44287109 C-227.20926952 257.29110009 -227.23656775 253.14001399 -227.27101707 248.98840523 C-227.29329928 245.78841036 -227.2973098 242.58857996 -227.2962532 239.38851547 C-227.29860733 237.85835282 -227.30742031 236.3281855 -227.32291794 234.79809952 C-227.34260565 232.6534918 -227.33673081 230.51035616 -227.32470703 228.36572266 C-227.32755707 227.14756866 -227.3304071 225.92941467 -227.33334351 224.67434692 C-226.58101986 219.57430485 -224.17581882 216.48921242 -220.35058594 213.15039062 C-215.32467638 210.53401057 -210.14727245 209.35693758 -204.65136719 208.07226562 C-203.01264648 207.67007813 -203.01264648 207.67007813 -201.34082031 207.25976562 C-193.3189772 205.32226562 -193.3189772 205.32226562 -189.83886719 205.32226562 C-189.72542969 204.35546875 -189.61199219 203.38867188 -189.49511719 202.39257812 C-186.63596553 182.58699634 -177.36817088 163.03039347 -167.66967773 145.73754883 C-165.73563401 142.25434787 -164.20151876 139.30690918 -163.83886719 135.32226562 C-164.76458516 132.88732647 -164.76458516 132.88732647 -166.33105469 130.56445312 C-166.87117188 129.69175781 -167.41128906 128.8190625 -167.96777344 127.91992188 C-168.54398438 127.02144531 -169.12019531 126.12296875 -169.71386719 125.19726562 C-170.83853941 123.40442079 -171.96103545 121.61020844 -173.08105469 119.81445312 C-173.58491699 119.02409668 -174.0887793 118.23374023 -174.60791016 117.41943359 C-176.43360882 114.30901085 -177.03340912 111.62342421 -177.15136719 108.07226562 C-177.20744141 106.98171875 -177.20744141 106.98171875 -177.26464844 105.86914062 C-175.88584571 97.62162337 -168.89341537 91.94036416 -163.25292969 86.33789062 C-162.30851209 85.39144812 -161.36453987 84.44456099 -160.42098999 83.49725342 C-158.45053196 81.52239384 -156.47480545 79.55300771 -154.49511719 77.58740234 C-151.96762487 75.07702415 -149.45387471 72.55338261 -146.94391823 70.02548599 C-145.00016383 68.07085501 -143.04927606 66.12346966 -141.09620285 64.17815399 C-139.71745109 62.80235417 -138.34469913 61.42055004 -136.97207642 60.03863525 C-135.70078384 58.7815274 -135.70078384 58.7815274 -134.40380859 57.49902344 C-133.6653067 56.76290833 -132.92680481 56.02679321 -132.16592407 55.26837158 C-127.61134115 51.45939682 -123.26080865 49.62883826 -117.38574219 49.84570312 C-108.86478143 51.44011603 -101.24702422 57.17257941 -94.31152344 62.09960938 C-91.21120584 63.63262582 -90.12382848 63.22742388 -86.83886719 62.32226562 C-84.49760598 61.264676 -84.49760598 61.264676 -82.16308594 59.91601562 C-81.26452881 59.42359375 -80.36597168 58.93117187 -79.44018555 58.42382812 C-78.47862549 57.8953125 -77.51706543 57.36679687 -76.52636719 56.82226562 C-61.05126021 48.53384443 -39.83423673 37.32226562 -21.83886719 37.32226562 C-21.70931641 36.44441406 -21.70931641 36.44441406 -21.57714844 35.54882812 C-20.55195003 29.28477182 -19.13513235 23.14572485 -17.52636719 17.00976562 C-17.33792236 16.2455127 -17.14947754 15.48125977 -16.95532227 14.69384766 C-14.4885021 5.57746825 -9.89118159 0.10794722 0 0 Z " fill="#B6DFF5" transform="translate(226.8388671875,-0.322265625)"/>
<path d="M0 0 C3.28768614 3.74430921 5.14949865 6.20309044 5.3125 11.1875 C5.34988281 11.92355469 5.38726562 12.65960938 5.42578125 13.41796875 C4.16799466 21.04546355 -1.78285674 26.13325771 -7.08984375 31.2421875 C-8.69476226 32.81890782 -10.29957675 34.39573402 -11.90429688 35.97265625 C-14.42029473 38.4265822 -16.93959215 40.87703044 -19.46166992 43.32470703 C-21.9088947 45.70518279 -24.34348273 48.09806101 -26.77734375 50.4921875 C-27.90099586 51.57075516 -27.90099586 51.57075516 -29.04734802 52.67111206 C-36.39500676 59.91506462 -41.050019 67.15338973 -41.3125 77.625 C-41.25676065 85.2148416 -39.44537833 91.61703288 -34 97 C-34 97.66 -34 98.32 -34 99 C-33.42378906 99.28746094 -32.84757812 99.57492187 -32.25390625 99.87109375 C-30.82210175 100.58823673 -29.39217964 101.30916007 -27.96484375 102.03515625 C-27.29582031 102.37417969 -26.62679688 102.71320313 -25.9375 103.0625 C-25.26589844 103.40410156 -24.59429687 103.74570312 -23.90234375 104.09765625 C-17.10404865 107.32230957 -8.9014874 107.01230543 -1.875 104.5625 C10.65040603 98.60235258 20.70306797 85.34444371 30.27929688 75.54931641 C32.24713057 73.53909713 34.22434715 71.53850175 36.203125 69.5390625 C36.79700012 68.92656647 37.39087524 68.31407043 38.00274658 67.68301392 C41.9242402 63.73766727 45.69985546 60.61052674 51.34375 59.56640625 C56.7310035 59.55664673 59.72427351 60.43689459 64 64 C64.75603516 64.58007812 64.75603516 64.58007812 65.52734375 65.171875 C74.98118362 76.90767622 71.9896896 101.68701757 70.78466797 115.46142578 C68.4307392 134.71718847 58.70582264 154.5758661 46 169 C45.31292969 169.83015625 44.62585938 170.6603125 43.91796875 171.515625 C27.70105859 190.56684198 4.53453497 201.08288697 -20 204 C-24.54597047 204.3030647 -29.06968957 204.37973164 -33.625 204.375 C-35.45236694 204.37802124 -35.45236694 204.37802124 -37.31665039 204.38110352 C-46.12439107 204.28275478 -54.10392609 203.16520763 -62.55859375 200.77734375 C-66.16857471 199.9619224 -67.54918749 199.83893727 -71 201 C-73.15415309 202.78845061 -75.05081521 204.54479635 -76.99404907 206.53994751 C-77.57859151 207.12389451 -78.16313395 207.70784152 -78.7653898 208.30948389 C-80.72383506 210.27070937 -82.66760729 212.24585998 -84.61181641 214.22119141 C-86.01251715 215.6295684 -87.41413105 217.03703772 -88.81658936 218.44366455 C-91.83704348 221.47677234 -94.85116816 224.51598695 -97.86064529 227.55998611 C-102.62501267 232.37843412 -107.40459025 237.18159769 -112.18661499 241.98251343 C-123.20654226 253.05064573 -134.20646997 264.13858583 -145.20608521 275.22689819 C-155.27166067 285.37328719 -165.3414619 295.51538374 -175.42763269 305.64130533 C-180.17459975 310.40813793 -184.91165373 315.18453905 -189.64123082 319.9686234 C-192.59629341 322.95367174 -195.55975316 325.9302766 -198.52547455 328.90473175 C-199.89188731 330.27858965 -201.25486005 331.65587955 -202.61397171 333.0369606 C-215.15539996 345.77455154 -226.45438828 355.17790787 -245 355.375 C-257.79983134 355.23897073 -267.69141835 351.69953318 -277.296875 342.89453125 C-287.71528622 331.8298652 -290.70409265 319.83920434 -290.37109375 305.06640625 C-289.45349719 287.48839099 -276.40980157 276.10013833 -264.6875 264.45703125 C-263.50703921 263.27776635 -262.32695201 262.09812736 -261.1472168 260.9181366 C-258.68944706 258.46191974 -256.2283919 256.0090624 -253.76464844 253.55883789 C-250.62616699 250.43737243 -247.49433557 247.30933771 -244.36473083 244.17897511 C-241.93362629 241.748144 -239.49991284 239.31993902 -237.06533813 236.89258385 C-235.91026433 235.74066358 -234.75577 234.58816191 -233.60189819 233.43503761 C-223.53554861 223.38235488 -223.53554861 223.38235488 -219.05688477 219.55908203 C-212.97878664 214.35529803 -207.42635876 208.56980952 -201.77734375 202.91015625 C-200.50531833 201.63880593 -199.23314461 200.36760396 -197.96083069 199.09654236 C-195.30583772 196.44301665 -192.65264357 193.78770906 -190.00073242 191.13110352 C-186.61966022 187.74433465 -183.23411742 184.36207607 -179.84720516 180.98114872 C-177.22269432 178.36026982 -174.60059256 175.73699108 -171.97918892 173.11300468 C-170.73252079 171.86567456 -169.48512352 170.61907269 -168.23695183 169.37324715 C-162.43034015 163.57515931 -156.67633796 157.80103444 -151.34840393 151.55296326 C-149.68275736 149.63463013 -147.89172794 147.91274345 -146 146.21875 C-145.34128906 145.60386719 -144.68257812 144.98898437 -144.00390625 144.35546875 C-142.6510539 143.10282769 -141.28333596 141.8660793 -139.90234375 140.64453125 C-136.30542958 137.38322634 -136.30542958 137.38322634 -134.73413086 132.97412109 C-134.96949294 130.88848931 -135.40245618 129.01034123 -136 127 C-136.24878906 125.96101562 -136.49757812 124.92203125 -136.75390625 123.8515625 C-137.02074219 122.78679687 -137.28757813 121.72203125 -137.5625 120.625 C-143.14599202 93.14761808 -137.77879246 64.69187391 -123 41 C-107.63023771 17.97404339 -85.226529 2.2799203 -58.39453125 -4.34375 C-41.643657 -7.58212385 -14.75521254 -10.32086923 0 0 Z " fill="#17ABE8" transform="translate(290,157)"/>
<path d="M0 0 C3.375 1.8125 3.375 1.8125 6 4 C6.75603516 4.58007812 6.75603516 4.58007812 7.52734375 5.171875 C16.98118362 16.90767622 13.9896896 41.68701757 12.78466797 55.46142578 C10.4307392 74.71718847 0.70582264 94.5758661 -12 109 C-12.68707031 109.83015625 -13.37414062 110.6603125 -14.08203125 111.515625 C-30.29894141 130.56684198 -53.46546503 141.08288697 -78 144 C-82.54597047 144.3030647 -87.06968957 144.37973164 -91.625 144.375 C-93.45236694 144.37802124 -93.45236694 144.37802124 -95.31665039 144.38110352 C-104.12439107 144.28275478 -112.10392609 143.16520763 -120.55859375 140.77734375 C-124.16857471 139.9619224 -125.54918749 139.83893727 -129 141 C-131.15415309 142.78845061 -133.05081521 144.54479635 -134.99404907 146.53994751 C-135.57859151 147.12389451 -136.16313395 147.70784152 -136.7653898 148.30948389 C-138.72383506 150.27070937 -140.66760729 152.24585998 -142.61181641 154.22119141 C-144.01251715 155.6295684 -145.41413105 157.03703772 -146.81658936 158.44366455 C-149.83704348 161.47677234 -152.85116816 164.51598695 -155.86064529 167.55998611 C-160.62501267 172.37843412 -165.40459025 177.18159769 -170.18661499 181.98251343 C-181.20654226 193.05064573 -192.20646997 204.13858583 -203.20608521 215.22689819 C-213.27166067 225.37328719 -223.3414619 235.51538374 -233.42763269 245.64130533 C-238.17459975 250.40813793 -242.91165373 255.18453905 -247.64123082 259.9686234 C-250.59629341 262.95367174 -253.55975316 265.9302766 -256.52547455 268.90473175 C-257.89188731 270.27858965 -259.25486005 271.65587955 -260.61397171 273.0369606 C-273.15539996 285.77455154 -284.45438828 295.17790787 -303 295.375 C-314.85866034 295.24897295 -323.45375235 292.29227251 -333 285 C-333.99 283.515 -333.99 283.515 -335 282 C-254.81 201.81 -174.62 121.62 -92 39 C-89.98593205 40.00703398 -87.97192969 41.01427761 -85.96484375 42.03515625 C-85.29582031 42.37417969 -84.62679687 42.71320313 -83.9375 43.0625 C-83.26589844 43.40410156 -82.59429687 43.74570312 -81.90234375 44.09765625 C-75.10404865 47.32230957 -66.9014874 47.01230543 -59.875 44.5625 C-47.34959397 38.60235258 -37.29693203 25.34444371 -27.72070312 15.54931641 C-25.75286943 13.53909713 -23.77565285 11.53850175 -21.796875 9.5390625 C-21.20299988 8.92656647 -20.60912476 8.31407043 -19.99725342 7.68301392 C-14.12250317 1.77252969 -8.47043958 -1.39655993 0 0 Z " fill="#1689FB" transform="translate(348,217)"/>
</svg>
